<svg width="12" height="12" viewBox="0 0 12 12" fill="none" xmlns="http://www.w3.org/2000/svg">
<path d="M9.97761 7.21758C9.80065 7.67555 9.58808 8.22516 9.51682 9.1875H8.06112C7.99011 8.22703 7.77776 7.67555 7.60104 7.21617C7.43511 6.78516 7.31534 6.47367 7.42643 6.02203C7.5551 5.49867 8.0644 4.96875 8.78909 4.96875C9.51378 4.96875 10.0231 5.49867 10.1517 6.02203C10.2638 6.47742 10.1438 6.78797 9.97761 7.21758Z" fill="#00D66F" fill-opacity="0.8"/>
<path d="M12 12H5.625V9.89062H12V12Z" fill="#00D66F" fill-opacity="0.8"/>
<path d="M8.93461 2.10941H7.03125V0.206055L8.93461 2.10941Z" fill="#00D66F" fill-opacity="0.8"/>
<path d="M2.46094 9.89062C2.6551 9.89062 2.8125 9.73323 2.8125 9.53906C2.8125 9.3449 2.6551 9.1875 2.46094 9.1875C2.26677 9.1875 2.10938 9.3449 2.10938 9.53906C2.10938 9.73323 2.26677 9.89062 2.46094 9.89062Z" fill="#00D66F" fill-opacity="0.8"/>
<path d="M6.32812 2.8125V0H0V12H4.92188V9.1875H7.35609C7.28883 8.36297 7.10742 7.89141 6.94477 7.46883C6.76523 7.00242 6.57961 6.52008 6.74344 5.85422C6.93773 5.06484 7.70273 4.26562 8.78906 4.26562C8.91047 4.26562 9.02766 4.27547 9.14062 4.29445V2.8125H6.32812ZM1.40625 4.26562H4.21875V4.96875H1.40625V4.26562ZM2.46094 10.5938C1.87945 10.5938 1.40625 10.1205 1.40625 9.53906C1.40625 8.95758 1.87945 8.48438 2.46094 8.48438C3.04242 8.48438 3.51562 8.95758 3.51562 9.53906C3.51562 10.1205 3.04242 10.5938 2.46094 10.5938ZM5.625 6.375H1.40625V5.67188H5.625V6.375Z" fill="#00D66F" fill-opacity="0.8"/>
</svg>
