<svg width="24" height="27" viewBox="0 0 24 27" fill="none" xmlns="http://www.w3.org/2000/svg">
<path d="M12.5104 1.44627C14.4988 3.3746 14.4988 6.50105 12.5104 8.42937C10.5221 10.3577 7.2984 10.3577 5.31009 8.42937C3.32177 6.50105 3.32177 3.3746 5.31009 1.44627C7.2984 -0.482091 10.5221 -0.482091 12.5104 1.44627" fill="#1F5070"/>
<path d="M16.7199 13.4345C12.0785 10.3929 5.74153 10.3929 1.10006 13.4345C0.411418 13.8853 0 14.6472 0 15.473V19.7514H17.82V15.473C17.82 14.6472 17.4085 13.8853 16.7199 13.4345V13.4345Z" fill="#1F5070"/>
<ellipse cx="16.0652" cy="18.1989" rx="7.155" ry="6.93912" fill="white"/>
<g clip-path="url(#clip0)">
<path d="M22.5058 18.103C22.5058 14.7948 19.7307 12.1035 16.3195 12.1035C12.9084 12.1035 10.1333 14.7948 10.1333 18.103C10.1333 21.411 12.9084 24.1023 16.3195 24.1023C19.7307 24.1023 22.5058 21.411 22.5058 18.103ZM15.2168 20.6622L13.1047 18.6138L13.7449 17.9931L15.2168 19.4205L18.8942 15.8541L19.5344 16.4749L15.2168 20.6622Z" fill="#005073"/>
<path d="M10.6026 22.1667L8.72998 24.8156L11.4987 24.3149L12.015 27.0001L13.7686 24.5197C12.4954 24.042 11.399 23.2178 10.6026 22.1667Z" fill="#005073"/>
<path d="M22.0365 22.1667C21.2401 23.2178 20.1437 24.042 18.8706 24.5197L20.6242 27.0001L21.1405 24.3149L23.9092 24.8156L22.0365 22.1667Z" fill="#005073"/>
</g>
<defs>
<clipPath id="clip0">
<rect x="8.64014" y="12.1035" width="15.36" height="14.8966" fill="white"/>
</clipPath>
</defs>
</svg>
