<svg width="25" height="27" viewBox="0 0 25 27" fill="none" xmlns="http://www.w3.org/2000/svg">
<path d="M13.0315 1.5534C15.1027 3.62457 15.1027 6.98261 13.0315 9.05377C10.9604 11.1249 7.60232 11.1249 5.53116 9.05377C3.45999 6.98261 3.45999 3.62457 5.53116 1.5534C7.60232 -0.517801 10.9604 -0.517801 13.0315 1.5534Z" fill="#979797"/>
<path d="M17.4166 14.4296C12.5817 11.1628 5.98076 11.1628 1.1459 14.4296C0.428561 14.9139 0 15.7322 0 16.6192V21.2144H18.5625V16.6192C18.5625 15.7322 18.1339 14.9139 17.4166 14.4296Z" fill="#979797"/>
<circle cx="16.7344" cy="19.5469" r="7.45312" fill="white"/>
<path d="M16.7344 13.5C13.4 13.5 10.6875 16.2125 10.6875 19.5469C10.6875 22.8813 13.4 25.5938 16.7344 25.5938C20.0688 25.5938 22.7812 22.8813 22.7812 19.5469C22.7812 16.2125 20.0688 13.5 16.7344 13.5ZM19.7991 18.2655L16.5237 21.5408C16.4255 21.6391 16.2965 21.6885 16.1675 21.6885C16.0385 21.6885 15.9095 21.6391 15.8112 21.5408L14.1736 19.9031C13.9765 19.7061 13.9765 19.3876 14.1736 19.1906C14.3706 18.9935 14.689 18.9935 14.8861 19.1906L16.1675 20.472L19.0867 17.553C19.2836 17.3559 19.6021 17.3559 19.7991 17.553C19.9961 17.75 19.9961 18.0684 19.7991 18.2655Z" fill="#979797"/>
</svg>
