<svg width="12" height="12" viewBox="0 0 12 12" fill="none" xmlns="http://www.w3.org/2000/svg">
<path d="M10.75 0H7.57849C6.97748 0 6.41198 0.234 5.98699 0.658992L0.426492 6.22001C0.155508 6.49099 0 6.86599 0 7.251C0 7.63399 0.155508 8.00899 0.426492 8.28L3.72049 11.574C3.99101 11.8445 4.36601 12 4.75099 12C5.13398 12 5.50898 11.8445 5.77999 11.5735L11.341 6.01252C11.766 5.58799 12 5.02249 12 4.42151V1.24999C12 0.560508 11.4395 0 10.75 0ZM9.25001 4.00001C8.5605 4.00001 8.00002 3.4395 8.00002 2.75002C8.00002 2.06051 8.56052 1.50002 9.25001 1.50002C9.93949 1.50002 10.5 2.06051 10.5 2.74999C10.5 3.4395 9.93949 4.00001 9.25001 4.00001Z" fill="#737171"/>
</svg>
