<svg width="39" height="40" viewBox="0 0 39 40" fill="none" xmlns="http://www.w3.org/2000/svg">
<path fill-rule="evenodd" clip-rule="evenodd" d="M17.249 21.8301L14.659 19.2271L12.519 21.3801L17.249 26.1401L25.925 17.4101L23.783 15.2561L17.249 21.8311V21.8301ZM30.061 20.6981C30.061 26.7121 25.2 31.6031 19.221 31.6031C13.244 31.6031 8.38301 26.7131 8.38301 20.6981C8.38301 14.6851 13.244 9.79212 19.222 9.79212C25.2 9.79212 30.061 14.6851 30.061 20.6981V20.6981ZM35.607 18.0651C35.199 15.4799 34.1881 13.0271 32.656 10.9051L34.34 9.21012L30.64 5.48812L28.955 7.18412C26.8523 5.64366 24.413 4.62593 21.839 4.21512V1.81812H16.607V4.21412C14.0323 4.62534 11.5924 5.64338 9.48901 7.18412L7.80301 5.48612L4.10201 9.20912L5.78801 10.9071C4.25639 13.0285 3.24579 15.4806 2.83801 18.0651H0.458008V23.3311H2.84001C3.24744 25.9162 4.25769 28.369 5.78901 30.4911L4.10301 32.1871L7.80301 35.9091L9.49001 34.2121C11.5936 35.7525 14.0334 36.7706 16.608 37.1821V39.5781H21.84V37.1801C24.407 36.7731 26.84 35.7571 28.956 34.2131L30.64 35.9081L34.34 32.1861L32.657 30.4911C34.1874 28.368 35.1979 25.9152 35.607 23.3301H37.99V18.0641H35.608L35.607 18.0651Z" fill="#787878"/>
</svg>
