<?xml version="1.0" encoding="utf-8"?>
<!-- Generator: Adobe Illustrator 21.1.0, SVG Export Plug-In . SVG Version: 6.00 Build 0)  -->
<svg version="1.1" id="Layer_1" xmlns="http://www.w3.org/2000/svg" xmlns:xlink="http://www.w3.org/1999/xlink" x="0px" y="0px"
	 viewBox="0 0 242 242" style="enable-background:new 0 0 242 242;" xml:space="preserve">
<style type="text/css">
	.st0{fill:#FFFFFF;stroke:#FFFFFF;}
	.st1{fill:#FFFFFF;stroke:#FFFFFF;stroke-width:0.5;stroke-miterlimit:10;}
</style>
<path class="st0" d="M134.1,14.2c0,7.6-6.1,13.7-13.7,13.7s-13.7-6.1-13.7-13.7s6.1-13.7,13.7-13.7S134.1,6.6,134.1,14.2z"/>
<path class="st0" d="M134.1,67.1c0,7.6-6.1,13.7-13.7,13.7s-13.7-6.1-13.7-13.7s6.1-13.7,13.7-13.7S134.1,59.5,134.1,67.1z"/>
<path class="st1" d="M120.7,227.6c-59,0-107-48-107-107s48-107,107-107s107,48,107,107S179.7,227.6,120.7,227.6z M120.7,14.7
	c-58.4,0-106,47.5-106,106s47.5,106,106,106s106-47.5,106-106S179.2,14.7,120.7,14.7z"/>
<path class="st0" d="M81.3,120.8c0,7.6-6.1,13.7-13.7,13.7s-13.7-6.1-13.7-13.7c0-7.6,6.1-13.7,13.7-13.7S81.3,113.2,81.3,120.8z"/>
<path class="st0" d="M42.1,67.1c0,7.6-6.1,13.7-13.7,13.7s-13.7-6.1-13.7-13.7s6.1-13.7,13.7-13.7S42.1,59.5,42.1,67.1z"/>
<path class="st0" d="M227.1,67.1c0,7.6-6.1,13.7-13.7,13.7c-7.6,0-13.7-6.1-13.7-13.7s6.1-13.7,13.7-13.7
	C221,53.4,227.1,59.5,227.1,67.1z"/>
<path class="st0" d="M42.1,174c0,7.6-6.1,13.7-13.7,13.7s-13.7-6.1-13.7-13.7s6.1-13.7,13.7-13.7S42.1,166.4,42.1,174z"/>
<path class="st0" d="M227.1,174c0,7.6-6.1,13.7-13.7,13.7c-7.6,0-13.7-6.1-13.7-13.7s6.1-13.7,13.7-13.7
	C221,160.3,227.1,166.4,227.1,174z"/>
<path class="st0" d="M81.3,28.9c0,7.6-6.1,13.7-13.7,13.7s-13.7-6.1-13.7-13.7S60,15.2,67.6,15.2S81.3,21.3,81.3,28.9z"/>
<path class="st0" d="M187.9,28.9c0,7.6-6.1,13.7-13.7,13.7c-7.6,0-13.7-6.1-13.7-13.7s6.1-13.7,13.7-13.7
	C181.8,15.2,187.9,21.3,187.9,28.9z"/>
<path class="st0" d="M81.3,213c0,7.6-6.1,13.7-13.7,13.7s-13.7-6.1-13.7-13.7s6.1-13.7,13.7-13.7S81.3,205.4,81.3,213z"/>
<path class="st0" d="M187.9,213c0,7.6-6.1,13.7-13.7,13.7c-7.6,0-13.7-6.1-13.7-13.7s6.1-13.7,13.7-13.7
	C181.8,199.3,187.9,205.4,187.9,213z"/>
<path class="st0" d="M27.9,120.8c0,7.6-6.1,13.7-13.7,13.7s-13.7-6.1-13.7-13.7c0-7.6,6.1-13.7,13.7-13.7S27.9,113.2,27.9,120.8z"/>
<path class="st0" d="M241.3,120.8c0,7.6-6.1,13.7-13.7,13.7c-7.6,0-13.7-6.1-13.7-13.7c0-7.6,6.1-13.7,13.7-13.7
	C235.2,107.1,241.3,113.2,241.3,120.8z"/>
<path class="st0" d="M187.9,120.8c0,7.6-6.1,13.7-13.7,13.7c-7.6,0-13.7-6.1-13.7-13.7c0-7.6,6.1-13.7,13.7-13.7
	C181.8,107.1,187.9,113.2,187.9,120.8z"/>
<path class="st0" d="M134.1,174.2c0,7.6-6.1,13.7-13.7,13.7s-13.7-6.1-13.7-13.7c0-7.6,6.1-13.7,13.7-13.7S134.1,166.6,134.1,174.2z
	"/>
<path class="st0" d="M134.1,227.1c0,7.6-6.1,13.7-13.7,13.7s-13.7-6.1-13.7-13.7c0-7.6,6.1-13.7,13.7-13.7S134.1,219.5,134.1,227.1z
	"/>
<path class="st1" d="M120.4,175.2L66,120.8l54.4-54.4l54.4,54.4L120.4,175.2z M67.4,120.8l53,53l53-53l-53-53L67.4,120.8z"/>
<path class="st1" d="M227.5,120.3H14.2v1h213.3V120.3z"/>
<path class="st1" d="M121.4,14.2h-1v213.3h1V14.2z"/>
<path class="st1" d="M174,28.5l-53.8,38.2l0.6,0.8l53.8-38.2L174,28.5z"/>
<path class="st1" d="M120.7,173.5l-0.6,0.8l53.8,38.2l0.6-0.8L120.7,173.5z"/>
<path class="st1" d="M67.6,28.5l-0.6,0.8l53.8,38.2l0.6-0.8L67.6,28.5z"/>
<path class="st1" d="M120.9,173.4l-53.8,38.2l0.6,0.8l53.8-38.2L120.9,173.4z"/>
<path class="st1" d="M27.7,65.7l-0.8,0.6l40.3,53.7l0.8-0.6L27.7,65.7z"/>
<path class="st1" d="M66.2,121.5l-40.3,53.8l0.8,0.6L67,122.1L66.2,121.5z"/>
<path class="st1" d="M214,65.7l-40.3,53.8l0.8,0.6l40.3-53.8L214,65.7z"/>
<path class="st1" d="M175.5,121.5l-0.8,0.6l40.3,53.7l0.8-0.6L175.5,121.5z"/>
</svg>
