<svg width="12" height="12" viewBox="0 0 12 12" fill="none" xmlns="http://www.w3.org/2000/svg">
<path d="M10.8326 4.83289C10.8326 2.16797 8.66449 0 5.99948 0C3.33456 0 1.1665 2.16797 1.1665 4.83289C1.1665 7.49771 3.33456 9.66568 5.99948 9.66568C8.66449 9.66568 10.8326 7.49771 10.8326 4.83289ZM5.13797 6.89447L3.48792 5.24442L3.98807 4.74435L5.13797 5.89426L8.01099 3.02133L8.51114 3.52139L5.13797 6.89447Z" fill="#8D47FF"/>
<path d="M1.53333 8.10645L0.0703125 10.2403L2.23334 9.83688L2.63672 12L4.00671 10.0019C3.01208 9.61707 2.15552 8.95312 1.53333 8.10645Z" fill="#8D47FF"/>
<path d="M10.4661 8.10645C9.84387 8.95312 8.9873 9.61707 7.99268 10.0019L9.36267 12L9.76605 9.83688L11.9291 10.2403L10.4661 8.10645Z" fill="#8D47FF"/>
</svg>
