<svg xmlns="http://www.w3.org/2000/svg" xmlns:xlink="http://www.w3.org/1999/xlink" width="103" height="39" viewBox="0 0 103 39">
    <defs>
        <path id="a" d="M0 0h102.921v40H0z"/>
    </defs>
    <g fill="none" fill-rule="evenodd">
        <mask id="b" fill="#fff">
            <use xlink:href="#a"/>
        </mask>
        <path fill="#005073" d="M3.592 5.843c.02.401.028.798.063 1.193.132 1.497.659 2.85 1.548 4.061 1.056 1.44 2.423 2.532 3.937 3.458 1.7 1.04 3.513 1.849 5.356 2.596 1.515.614 3.033 1.218 4.538 1.853.813.344 1.61.73 2.304 1.288.345.277.655.586.796 1.02.15.458.058.883-.197 1.281a4.402 4.402 0 0 0-.612 1.431c-.154.695-.016 1.34.313 1.954.355.664.863 1.212 1.356 1.772.57.647 1.157 1.281 1.615 2.018.48.77.828 1.59.948 2.494.141 1.061.03 2.105-.263 3.132-.23.81-.532 1.594-.899 2.353-.06.126-.143.176-.279.197-1.266.202-2.54.285-3.821.25a21.031 21.031 0 0 1-5.746-.962C7.63 35.065 2.289 29.375.589 22.359c-.257-1.063-.453-2.136-.514-3.227-.046-.828-.1-1.66-.063-2.486C.18 12.75 1.35 9.17 3.53 5.921c.02-.029.043-.054.062-.078" mask="url(#b)"/>
        <path fill="#2C5D6D" d="M41.348 17.017v0M41.318 19.606c.053-.427.066-.793.078-1.053l.005-.126c-.023.453-.059.903-.105 1.348l.022-.169" mask="url(#b)"/>
        <path fill="#005073" d="M31.198 15.993a2.206 2.206 0 0 1-.671-.034 5.531 5.531 0 0 1-.918-.304c-.096-.04-.213-.197-.2-.285.01-.084.167-.168.275-.216.097-.042.215-.034.279-.043.509.007.902.189 1.252.48.037.03.07.069.097.109.1.153.066.277-.114.293m-2.753-1.62c-.172.07-.364.09-.5.121-.867-.063-1.473-.47-1.946-1.108a.581.581 0 0 1-.076-.166c-.074-.231.015-.398.254-.392.297.008.6.041.887.114.464.118.917.28 1.298.587a1.2 1.2 0 0 1 .25.269c.152.23.089.47-.167.575m-3.92-1.05c-.08.03-.163.058-.247.069-.2.024-.403.038-.545.05-1.202-.049-2.321-.204-3.345-.754-.283-.152-.541-.358-.792-.562a1.276 1.276 0 0 1-.289-.378c-.189-.344-.115-.568.237-.733a3.683 3.683 0 0 1 1.862-.33 5.056 5.056 0 0 1 2.79 1.074c.254.2.472.469.644.745.221.355.079.669-.315.819m8.556 20.637l.193-.149c.06-.046.12-.092.18-.14.055-.043.11-.088.164-.133 1.715-1.39 3.208-3.071 4.478-5.047a20.228 20.228 0 0 0 3.036-8.224l.079-.534a20.97 20.97 0 0 0 .136-2.23l.001-.124v-.123c0-.147-.002-.294-.006-.44v-.042l-.013-.332a12.834 12.834 0 0 0-.092-1.057c-.126-.95-.236-1.908-.46-2.836-.555-2.287-1.414-4.364-2.573-6.234l-.052-.083c-.05-.082-.103-.162-.155-.243a22.168 22.168 0 0 0-.146-.223l-.096-.142a20.582 20.582 0 0 0-.716-.989c-1.336-1.73-2.967-3.256-4.89-4.577-.099-.068-.174-.074-.283-.028-.79.34-1.58.674-2.373 1.007-2.28.956-4.572 1.888-6.786 2.997-1.616.81-3.21 1.661-4.65 2.77-.833.643-1.595 1.357-2.154 2.262-.345.557-.575 1.155-.615 1.816-.056.913.242 1.721.754 2.457.594.854 1.405 1.46 2.296 1.965 1.226.693 2.548 1.15 3.89 1.552 2.185.654 4.423 1.086 6.644 1.59 1.446.33 2.89.66 4.293 1.152.883.31 1.742.673 2.486 1.261.981.776 1.268 1.759.86 2.941-.237.69-.622 1.301-1.082 1.858-1.223 1.481-2.47 2.943-3.698 4.422-1.482 1.787-2.96 3.578-4.287 5.487-.386.554-.737 1.133-1.103 1.7l.036.036c.063-.016.128-.03.19-.05 2.283-.706 4.337-1.717 6.161-3.033l.123-.09.23-.17" mask="url(#b)"/>
        <path fill="#3B423E" d="M63.084 23.289c0-1.403-1.15-2.268-3.743-2.268h-5.843v4.596h6.007c2.233 0 3.579-.716 3.579-2.268v-.06zm-1.45-9.98c-.02-1.063-.687-2-3.044-2h-5.086l-.029 4.422h4.781c3.048.04 3.402-1.21 3.379-2.423zm-1.92 17.702H47.64V5.843h11.784c5.185 0 8.375 2.552 8.375 6.508v.072c0 2.84-1.522 4.422-3.335 5.429 2.937 1.114 4.75 2.804 4.75 6.184v.072c0 4.602-3.771 6.903-9.5 6.903zM70.562 31.46V5.844h3.214c1.526 0 3.078 1.48 3.078 2.986V31.46h-6.292zM96.642 18.406c0-4.114-2.809-7-6.974-7h-3.933v14h3.933c4.165 0 6.974-2.82 6.974-6.934v-.066zm-7.2 12.605h-9.891V5.843h9.891c7.972 0 13.48 5.429 13.48 12.512v.072c0 7.083-5.508 12.584-13.48 12.584z" mask="url(#b)"/>
    </g>
</svg>
