<svg width="25" height="25" viewBox="0 0 25 25" fill="none" xmlns="http://www.w3.org/2000/svg">
<path d="M11.4691 1.36713C13.2919 3.18994 13.2919 6.14531 11.4691 7.96812C9.64627 9.79093 6.69089 9.79093 4.86808 7.96812C3.04527 6.14531 3.04527 3.18994 4.86808 1.36713C6.69089 -0.455711 9.64627 -0.455711 11.4691 1.36713Z" fill="#979797"/>
<path d="M15.3282 12.6993C11.0731 9.8242 5.2636 9.8242 1.00849 12.6993C0.377171 13.1255 0 13.8457 0 14.6263V18.6705H16.3367V14.6263C16.3367 13.8457 15.9594 13.1255 15.3282 12.6993Z" fill="#979797"/>
<circle cx="15.0989" cy="15.8416" r="6.9307" fill="white"/>
<rect x="19.4136" y="17.0366" width="7.1348" height="4.11582" rx="2.05791" transform="rotate(45.2158 19.4136 17.0366)" fill="white"/>
<path d="M15.4219 16.0457H13.4004C12.9961 16.0457 12.7266 16.3152 12.7266 16.7195C12.7266 17.1238 12.9961 17.3933 13.4004 17.3933H15.4219C15.8262 17.3933 16.0958 17.1238 16.0958 16.7195C16.0958 16.3826 15.8262 16.0457 15.4219 16.0457Z" fill="#979797"/>
<path d="M17.4435 14.0637H13.4004C12.9961 14.0637 12.7266 14.4006 12.7266 14.7376C12.7266 15.1419 12.9961 15.4114 13.4004 15.4114H17.4435C17.8478 15.4114 18.1173 15.1419 18.1173 14.7376C18.1173 14.4006 17.8478 14.0637 17.4435 14.0637Z" fill="#979797"/>
<path d="M22.1238 20.9952L20.2525 19.1239C20.854 18.1883 21.1882 17.119 21.1882 15.916C21.1882 12.5744 18.5149 9.90112 15.1733 9.90112C11.8317 9.90112 9.15845 12.5744 9.15845 15.916C9.15845 19.2576 11.8317 21.9308 15.1733 21.9308C16.3763 21.9308 17.4456 21.5967 18.3812 20.9952L20.2525 22.8665C20.7872 23.4011 21.5892 23.4011 22.1238 22.8665C22.6585 22.3318 22.6585 21.5298 22.1238 20.9952ZM15.1733 20.5942C12.5669 20.5942 10.4951 18.5224 10.4951 15.916C10.4951 13.3095 12.5669 11.2378 15.1733 11.2378C17.7797 11.2378 19.8515 13.3095 19.8515 15.916C19.8515 18.5224 17.7797 20.5942 15.1733 20.5942Z" fill="#979797"/>
</svg>
