<svg width="22" height="28" viewBox="0 0 22 28" fill="none" xmlns="http://www.w3.org/2000/svg">
<path d="M5.44844 17.3858C5.44844 16.9371 5.13704 16.6694 4.58761 16.6694C4.36325 16.6694 4.21131 16.6916 4.13184 16.7128V18.1526C4.22594 18.1738 4.34162 18.1809 4.50107 18.1809C5.08671 18.1809 5.44844 17.885 5.44844 17.3858Z" fill="#005073"/>
<path d="M8.85066 16.6841C8.60461 16.6841 8.44561 16.7053 8.35156 16.7274V19.9162C8.44567 19.9383 8.59761 19.9383 8.73498 19.9383C9.73312 19.9453 10.3841 19.3959 10.3841 18.2317C10.3912 17.2193 9.79797 16.6841 8.85066 16.6841Z" fill="#005073"/>
<path d="M15.1692 0H4.3159C2.73033 0 1.43985 1.29138 1.43985 2.87605V13.5112H1.15894C0.518995 13.5112 0 14.0297 0 14.6702V21.6987C0 22.3391 0.518939 22.8576 1.15894 22.8576H1.43985V24.1464C1.43985 25.7328 2.73033 27.0224 4.3159 27.0224H19.1248C20.7093 27.0224 22 25.7327 22 24.1464V6.80685L15.1692 0ZM3.04038 15.9386C3.38002 15.8812 3.85743 15.8379 4.53005 15.8379C5.20979 15.8379 5.69426 15.9677 6.01978 16.2283C6.33073 16.4739 6.54057 16.8793 6.54057 17.3563C6.54057 17.8333 6.38156 18.2388 6.09225 18.5135C5.71595 18.8677 5.15946 19.0267 4.50847 19.0267C4.36359 19.0267 4.23373 19.0195 4.13217 19.0055V20.7483H3.04038V15.9386ZM19.1248 25.2611H4.3159C3.70196 25.2611 3.20202 24.7612 3.20202 24.1464V22.8576H17.0069C17.647 22.8576 18.1659 22.3391 18.1659 21.6987V14.6702C18.1659 14.0297 17.647 13.5112 17.0069 13.5112H3.20202V2.87605C3.20202 2.26301 3.70201 1.76307 4.3159 1.76307L14.5103 1.75242V5.52063C14.5103 6.62128 15.4033 7.51517 16.5048 7.51517L20.1962 7.50458L20.2377 24.1463C20.2377 24.7612 19.7387 25.2611 19.1248 25.2611ZM7.24457 20.7262V15.9386C7.64951 15.8741 8.17731 15.8379 8.7343 15.8379C9.65997 15.8379 10.2602 16.004 10.7306 16.3581C11.2367 16.7344 11.5547 17.3343 11.5547 18.1954C11.5547 19.1282 11.2151 19.7722 10.7447 20.1696C10.2314 20.5962 9.45019 20.7986 8.49577 20.7986C7.9242 20.7986 7.51926 20.7624 7.24457 20.7262ZM15.1375 17.8916V18.7882H13.3872V20.7483H12.2808V15.8741H15.2602V16.7777H13.3872V17.8916H15.1375Z" fill="#005073"/>
</svg>
