<svg width="274" height="60" viewBox="0 0 274 60" fill="none" xmlns="http://www.w3.org/2000/svg">
<path d="M153.947 54.2617C154.322 53.8834 154.873 53.6843 155.406 53.6843C156.49 53.6843 156.943 54.202 156.943 55.2573V56.8502C156.943 57.0692 156.963 57.3081 157.002 57.4873H156.411C156.371 57.3281 156.371 57.0891 156.371 56.9298H156.352C156.115 57.3081 155.701 57.5869 155.149 57.5869C154.4 57.5869 153.789 57.2086 153.789 56.4918C153.789 55.2573 155.189 55.1976 156.095 55.1976H156.332V55.0781C156.332 54.5405 155.997 54.2617 155.425 54.2617C155.031 54.2617 154.617 54.4011 154.341 54.66L153.947 54.2617ZM155.721 55.7153C154.952 55.7153 154.44 55.9343 154.44 56.4321C154.44 56.89 154.795 57.0692 155.248 57.0692C155.957 57.0692 156.312 56.5515 156.332 55.9542V55.7153H155.721Z" fill="#969696"/>
<path d="M158.066 54.6596C158.066 54.3211 158.046 54.0224 158.046 53.7835H158.618C158.618 53.9826 158.638 54.1817 158.638 54.4007H158.657C158.815 54.0423 159.288 53.7039 159.879 53.7039C160.845 53.7039 161.279 54.3211 161.279 55.2171V57.5069H160.668V55.2768C160.668 54.6596 160.411 54.2614 159.84 54.2614C159.052 54.2614 158.697 54.8388 158.697 55.695V57.5069H158.086V54.6596H158.066Z" fill="#969696"/>
<path d="M164.842 52.1052H166.498L168.863 56.0078H168.882V52.1052H170.104V57.7201H168.508L166.084 53.718H166.064V57.7201H164.842V52.1052Z" fill="#969696"/>
<path d="M172.253 53.2003H170.676V52.1052H175.071V53.2003H173.494V57.7201H172.272V53.2003H172.253Z" fill="#969696"/>
<path d="M176.707 53.2003H175.131V52.1052H179.526V53.2003H177.949V57.7201H176.727V53.2003H176.707Z" fill="#969696"/>
<path d="M182.344 52.1052H184.177C185.971 52.1052 187.469 52.8818 187.469 54.9326C187.469 56.7445 186.01 57.7201 184.355 57.7201H182.364V52.1052H182.344ZM183.566 56.5653H184.197C185.34 56.5653 186.188 56.1273 186.188 54.8529C186.188 53.7578 185.32 53.2402 184.276 53.2402H183.547V56.5653H183.566Z" fill="#969696"/>
<path d="M190.07 52.1052H191.075L193.499 57.7201H192.12L191.647 56.5255H189.498L189.025 57.7201H187.685L190.07 52.1052ZM190.543 53.7379L189.873 55.4901H191.233L190.543 53.7379Z" fill="#969696"/>
<path d="M194.347 53.2003H192.771V52.1052H197.146V53.2003H195.569V57.7201H194.347V53.2003Z" fill="#969696"/>
<path d="M198.781 52.1052H199.786L202.191 57.7201H200.811L200.338 56.5255H198.19L197.737 57.7201H196.396L198.781 52.1052ZM199.254 53.7379L198.584 55.4901H199.944L199.254 53.7379Z" fill="#969696"/>
<path d="M211.628 54.0566C212.751 54.0566 213.599 54.8531 213.599 56.0079C213.599 57.1628 212.771 57.9592 211.628 57.9592C210.504 57.9592 209.676 57.1628 209.676 56.0079C209.676 54.8531 210.504 54.0566 211.628 54.0566ZM211.628 57.4017C212.416 57.4017 212.928 56.8044 212.928 56.0278C212.928 55.2513 212.416 54.654 211.628 54.654C210.839 54.654 210.327 55.2513 210.327 56.0278C210.347 56.8044 210.839 57.4017 211.628 57.4017Z" fill="#969696"/>
<path d="M214.486 55.0324C214.486 54.6939 214.466 54.3952 214.466 54.1563H215.038C215.038 54.3554 215.057 54.5545 215.057 54.7735H215.077C215.235 54.4151 215.688 54.0767 216.299 54.0767C217.087 54.0767 217.344 54.5346 217.462 54.7735C217.718 54.3355 218.073 54.0767 218.625 54.0767C219.669 54.0767 220.024 54.674 220.024 55.6297V57.8797H219.413V55.6695C219.413 55.1519 219.236 54.6541 218.526 54.6541C218.014 54.6541 217.58 55.0722 217.58 55.7492V57.8797H216.969V55.789C216.969 54.9727 216.752 54.6541 216.26 54.6541C215.471 54.6541 215.116 55.2315 215.116 56.0877V57.8996H214.505V55.0324H214.486Z" fill="#969696"/>
<path d="M220.95 54.1562H221.561V54.6938H221.581C221.916 54.2956 222.369 54.0566 222.902 54.0566C224.045 54.0566 224.833 54.873 224.833 56.0079C224.833 57.1229 224.025 57.9592 223 57.9592C222.33 57.9592 221.818 57.6207 221.581 57.2026H221.561V59.6716H220.95V54.1562ZM222.862 57.4017C223.651 57.4017 224.163 56.8044 224.163 56.0278C224.163 55.2513 223.651 54.654 222.862 54.654C222.074 54.654 221.561 55.2513 221.561 56.0278C221.542 56.8044 222.074 57.4017 222.862 57.4017Z" fill="#969696"/>
<path d="M225.622 54.6341C225.996 54.2558 226.548 54.0566 227.08 54.0566C228.164 54.0566 228.617 54.5743 228.617 55.6296V57.2225C228.617 57.4415 228.637 57.6805 228.677 57.8597H228.085C228.046 57.7004 228.046 57.4614 228.046 57.3021H228.026C227.79 57.6805 227.376 57.9592 226.824 57.9592C226.075 57.9592 225.464 57.5809 225.464 56.8641C225.464 55.6296 226.883 55.5699 227.77 55.5699H228.006V55.4504C228.006 54.9128 227.671 54.6341 227.1 54.6341C226.706 54.6341 226.311 54.7734 226.016 55.0323L225.622 54.6341ZM227.395 56.0876C226.627 56.0876 226.114 56.3066 226.114 56.8044C226.114 57.2623 226.469 57.4415 226.922 57.4415C227.632 57.4415 227.987 56.9238 228.006 56.3265V56.0876H227.395Z" fill="#969696"/>
<path d="M229.622 55.0324C229.622 54.6939 229.583 54.3952 229.583 54.1563H230.154C230.154 54.3554 230.174 54.5545 230.174 54.7735H230.194C230.351 54.4151 230.805 54.0767 231.416 54.0767C232.381 54.0767 232.815 54.6939 232.815 55.5899V57.8797H232.204V55.6496C232.204 55.0324 231.948 54.6342 231.356 54.6342C230.568 54.6342 230.213 55.2116 230.213 56.0678V57.8797H229.602V55.0324H229.622Z" fill="#969696"/>
<path d="M235.279 58.7161C235.043 59.3533 234.786 59.7714 234.057 59.7714C233.88 59.7714 233.663 59.7515 233.505 59.6719L233.584 59.1343C233.702 59.1741 233.84 59.194 234.018 59.194C234.412 59.194 234.57 58.9551 234.708 58.5768L234.964 57.8799L233.446 54.1565H234.156L235.299 57.0635H235.319L236.403 54.1565H237.073L235.279 58.7161Z" fill="#969696"/>
<path d="M208.494 53.3994C208.159 52.9415 207.647 52.7225 207.114 52.7225C205.893 52.7225 205.006 53.8176 205.006 55.0321C205.006 56.3264 205.873 57.3418 207.114 57.3418C207.785 57.3418 208.317 57.0631 208.711 56.5653L209.204 56.9834C208.711 57.6604 208.001 57.9591 207.114 57.9591C205.538 57.9591 204.316 56.7246 204.316 55.0321C204.316 53.3994 205.479 52.1052 207.114 52.1052C207.863 52.1052 208.593 52.3641 209.066 52.9813L208.494 53.3994Z" fill="#969696"/>
<path fill-rule="evenodd" clip-rule="evenodd" d="M240.718 14.6601C240.383 14.1225 239.791 13.8239 238.924 13.804C238.037 13.8438 237.328 14.1424 236.815 14.7199C236.303 15.2774 236.027 15.9344 235.928 16.6712H241.289C241.23 15.8747 241.053 15.1977 240.718 14.6601Z" fill="#969696"/>
<path fill-rule="evenodd" clip-rule="evenodd" d="M273.475 6.97447C271.957 -7.52079 255.559 4.96345 228.577 5.66034C199.664 6.39705 192.982 33.2969 195.249 41.0224C200.492 58.803 222.073 30.3501 250.336 52.5708C270.341 68.3005 274.992 21.4697 273.475 6.97447ZM256.347 8.16913C256.604 7.91029 256.939 7.77091 257.333 7.751C257.727 7.77091 258.062 7.89038 258.318 8.16913C258.575 8.42797 258.712 8.76646 258.712 9.16468C258.712 9.5629 258.575 9.90139 258.318 10.1602C258.062 10.4191 257.727 10.5585 257.333 10.5784C256.939 10.5585 256.604 10.439 256.347 10.1602C256.091 9.90139 255.953 9.5629 255.953 9.16468C255.953 8.76646 256.091 8.44789 256.347 8.16913ZM222.743 21.0914C222.152 21.9476 221.442 22.6644 220.595 23.2219C219.728 23.7794 218.742 24.0781 217.658 24.098C216.594 24.0781 215.687 23.8391 214.958 23.3613C214.229 22.8834 213.697 22.2263 213.322 21.41C212.967 20.5936 212.79 19.6578 212.77 18.6423C212.79 17.607 213.027 16.6512 213.48 15.7951C213.933 14.9389 214.584 14.242 215.392 13.7243C216.2 13.2066 217.126 12.9279 218.151 12.9279C219.531 12.9478 220.595 13.3659 221.364 14.1624C222.113 14.9588 222.507 16.0539 222.566 17.4278V17.5871H214.781C214.781 18.4432 214.899 19.2397 215.175 19.9764C215.451 20.733 215.884 21.3503 216.495 21.8082C217.106 22.2662 217.895 22.525 218.88 22.525C219.491 22.5051 220.102 22.306 220.693 21.9476C221.285 21.5892 221.777 21.1711 222.152 20.6932L222.25 20.5936L222.802 20.9919L222.743 21.0914ZM233.091 14.1624C232.854 14.3216 232.657 14.7398 232.48 15.1778L229.444 23.879L227.434 23.8989L224.497 15.9145C224.281 15.2774 224.044 14.8194 223.768 14.5008C223.492 14.1823 223.098 13.8836 222.566 13.8438L222.428 13.8239V13.0673C222.428 13.0673 227.138 13.0673 227.276 13.0673H227.434V13.8239L227.296 13.8438C226.843 13.8637 226.567 13.9433 226.429 14.0628C226.291 14.1624 226.212 14.3216 226.232 14.5208C226.232 14.6004 226.251 14.7597 226.33 14.9588C226.389 15.138 228.38 20.6733 228.952 22.2263C229.503 20.6932 231.415 15.3172 231.474 15.0982C231.553 14.8592 231.573 14.6402 231.573 14.461C231.573 14.3017 231.494 14.1624 231.317 14.0429C231.159 13.9433 230.863 13.8637 230.43 13.8438H230.292V13.0872H230.45C230.607 13.0872 233.938 13.0872 233.938 13.0872V13.8438L233.8 13.8637C233.564 13.8836 233.327 13.9832 233.091 14.1624ZM243.852 21.0914C243.26 21.9476 242.551 22.6644 241.703 23.2219C240.836 23.7794 239.851 24.0781 238.767 24.098C237.702 24.0781 236.796 23.8391 236.067 23.3613C235.337 22.8834 234.805 22.2263 234.431 21.41C234.076 20.5936 233.899 19.6578 233.899 18.6423C233.899 17.607 234.135 16.6512 234.608 15.7951C235.081 14.9389 235.712 14.242 236.52 13.7243C237.328 13.2066 238.254 12.9279 239.279 12.9279C240.659 12.9478 241.723 13.3659 242.492 14.1624C243.241 14.9588 243.635 16.0539 243.694 17.4278V17.5871H235.909C235.909 18.4432 236.027 19.2397 236.303 19.9764C236.579 20.733 237.013 21.3503 237.624 21.8082C238.235 22.2662 239.023 22.525 240.008 22.525C240.619 22.5051 241.23 22.306 241.822 21.9476C242.413 21.5892 242.906 21.1711 243.3 20.6932L243.379 20.5936L243.95 20.9919L243.852 21.0914ZM253.391 15.4566H251.893L251.873 15.3371C251.814 15.0783 251.735 14.8194 251.597 14.5606C251.459 14.3216 251.243 14.2022 250.947 14.1823C250.395 14.2022 249.883 14.4013 249.39 14.7796C248.897 15.138 248.483 15.5163 248.089 15.8946L248.07 22.0272C248.07 22.3458 248.109 22.5648 248.188 22.7042C248.267 22.8436 248.424 22.963 248.72 23.0228C248.996 23.0825 249.449 23.1223 250.04 23.1024H250.198V23.859H244.088V23.1024H244.246C245.034 23.1024 245.488 23.0228 245.685 22.8834C245.882 22.744 245.961 22.4653 245.941 22.0073V15.2376C245.961 14.7796 245.882 14.5008 245.685 14.3615C245.507 14.2221 245.034 14.1424 244.246 14.1424H244.088V13.3858L244.226 13.3659C244.857 13.3062 245.448 13.2465 246.02 13.1867C246.591 13.127 247.123 13.0274 247.636 12.8881L247.813 12.8482L248.01 14.9787C248.523 14.4411 249.094 13.9832 249.725 13.565C250.415 13.127 251.164 12.8881 251.992 12.8681C252.169 12.8681 252.406 12.908 252.662 12.9876C252.918 13.0473 253.115 13.127 253.292 13.2066L253.391 13.2465V15.4566ZM260.191 23.8989H254.317V23.1422H254.475C255.303 23.1223 255.796 22.983 256.012 22.7839C256.229 22.5648 256.328 22.087 256.308 21.3104V15.5362C256.328 14.8991 256.209 14.5208 256.012 14.3615C255.796 14.2022 255.323 14.1026 254.534 14.1225H254.376V13.346L254.514 13.3261C255.796 13.2265 257.057 13.0872 258.318 12.8881L258.496 12.8681C258.496 12.8681 258.456 20.1954 258.456 21.2905C258.437 22.0671 258.535 22.5449 258.712 22.7639C258.89 22.9631 259.323 23.1024 260.053 23.1223H260.21V23.8989H260.191ZM268.843 22.6047C268.469 23.1223 267.976 23.4807 267.385 23.7197C266.774 23.9586 266.123 24.0781 265.414 24.0781C264.665 24.0781 263.916 23.9785 263.147 23.7794C262.398 23.6002 261.767 23.3613 261.255 23.0626L261.176 20.7728H262.378L262.398 20.9122C262.536 21.7684 262.871 22.3458 263.324 22.6843C263.817 23.0427 264.487 23.202 265.374 23.202C265.709 23.202 266.064 23.1422 266.399 23.0427C266.754 22.9232 267.03 22.7639 267.286 22.525C267.522 22.2861 267.641 21.9874 267.641 21.6091C267.621 21.1511 267.424 20.7728 267.03 20.4742C266.616 20.1556 266.103 19.8967 265.492 19.6578C264.881 19.4189 264.251 19.1401 263.64 18.8415C263.009 18.5428 262.497 18.1645 262.063 17.7065C261.629 17.2287 261.413 16.6313 261.393 15.8946C261.413 15.2176 261.629 14.6402 262.024 14.2022C262.418 13.7641 262.93 13.4456 263.522 13.2265C264.113 13.0274 264.704 12.908 265.295 12.9279C265.887 12.9279 266.458 13.0075 267.03 13.1668C267.582 13.3062 268.133 13.4854 268.666 13.6845L268.764 13.7243V15.7353H267.7L267.68 15.6159C267.562 15.0185 267.266 14.5407 266.852 14.2022C266.399 13.8438 265.867 13.6646 265.197 13.6646C264.684 13.6646 264.211 13.804 263.797 14.0628C263.403 14.3216 263.186 14.7199 263.147 15.2575C263.167 15.6358 263.364 15.9544 263.758 16.2331C264.172 16.5318 264.684 16.8105 265.295 17.0694C265.926 17.3282 266.537 17.607 267.148 17.9256C267.779 18.2441 268.291 18.6025 268.725 19.0406C269.158 19.4786 269.375 20.0361 269.395 20.6733C269.415 21.4498 269.237 22.087 268.843 22.6047Z" fill="#969696"/>
<path fill-rule="evenodd" clip-rule="evenodd" d="M219.609 14.6601C219.274 14.1225 218.683 13.8239 217.816 13.804C216.929 13.8438 216.219 14.1424 215.707 14.7199C215.214 15.2774 214.918 15.9344 214.82 16.6712H220.181C220.141 15.8747 219.944 15.1977 219.609 14.6601Z" fill="#969696"/>
<path d="M29.7427 26.168C29.7427 26.6627 29.626 27.1293 29.3927 27.568C29.1593 28.0067 28.786 28.366 28.2727 28.646C27.7593 28.9167 27.1013 29.052 26.2987 29.052H24.5347V33H22.9387V23.27H26.2987C27.0453 23.27 27.6753 23.4007 28.1887 23.662C28.7113 23.914 29.0987 24.2593 29.3507 24.698C29.612 25.1367 29.7427 25.6267 29.7427 26.168ZM26.2987 27.75C26.9053 27.75 27.358 27.6147 27.6567 27.344C27.9553 27.064 28.1047 26.672 28.1047 26.168C28.1047 25.104 27.5027 24.572 26.2987 24.572H24.5347V27.75H26.2987ZM34.6108 33.126C33.8828 33.126 33.2248 32.9627 32.6368 32.636C32.0488 32.3 31.5868 31.8333 31.2508 31.236C30.9148 30.6293 30.7468 29.9293 30.7468 29.136C30.7468 28.352 30.9195 27.6567 31.2648 27.05C31.6102 26.4433 32.0815 25.9767 32.6788 25.65C33.2762 25.3233 33.9435 25.16 34.6808 25.16C35.4182 25.16 36.0855 25.3233 36.6828 25.65C37.2802 25.9767 37.7515 26.4433 38.0968 27.05C38.4422 27.6567 38.6148 28.352 38.6148 29.136C38.6148 29.92 38.4375 30.6153 38.0828 31.222C37.7282 31.8287 37.2428 32.3 36.6268 32.636C36.0202 32.9627 35.3482 33.126 34.6108 33.126ZM34.6108 31.74C35.0215 31.74 35.4042 31.642 35.7588 31.446C36.1228 31.25 36.4168 30.956 36.6408 30.564C36.8648 30.172 36.9768 29.696 36.9768 29.136C36.9768 28.576 36.8695 28.1047 36.6548 27.722C36.4402 27.33 36.1555 27.036 35.8008 26.84C35.4462 26.644 35.0635 26.546 34.6528 26.546C34.2422 26.546 33.8595 26.644 33.5048 26.84C33.1595 27.036 32.8842 27.33 32.6788 27.722C32.4735 28.1047 32.3708 28.576 32.3708 29.136C32.3708 29.9667 32.5808 30.6107 33.0008 31.068C33.4302 31.516 33.9668 31.74 34.6108 31.74ZM50.5526 25.286L48.1586 33H46.4786L44.9246 27.302L43.3706 33H41.6906L39.2826 25.286H40.9066L42.5166 31.488L44.1546 25.286H45.8206L47.3886 31.46L48.9846 25.286H50.5526ZM58.8153 28.954C58.8153 29.2433 58.7966 29.5047 58.7593 29.738H52.8653C52.912 30.354 53.1406 30.8487 53.5513 31.222C53.962 31.5953 54.466 31.782 55.0633 31.782C55.922 31.782 56.5286 31.4227 56.8833 30.704H58.6053C58.372 31.4133 57.9473 31.9967 57.3313 32.454C56.7246 32.902 55.9686 33.126 55.0633 33.126C54.326 33.126 53.6633 32.9627 53.0753 32.636C52.4966 32.3 52.0393 31.8333 51.7033 31.236C51.3766 30.6293 51.2133 29.9293 51.2133 29.136C51.2133 28.3427 51.372 27.6473 51.6893 27.05C52.016 26.4433 52.4686 25.9767 53.0473 25.65C53.6353 25.3233 54.3073 25.16 55.0633 25.16C55.7913 25.16 56.44 25.3187 57.0093 25.636C57.5786 25.9533 58.022 26.4013 58.3393 26.98C58.6566 27.5493 58.8153 28.2073 58.8153 28.954ZM57.1493 28.45C57.14 27.862 56.93 27.3907 56.5193 27.036C56.1086 26.6813 55.6 26.504 54.9933 26.504C54.4426 26.504 53.9713 26.6813 53.5793 27.036C53.1873 27.3813 52.954 27.8527 52.8793 28.45H57.1493ZM61.9819 26.406C62.2153 26.014 62.5233 25.7107 62.9059 25.496C63.2979 25.272 63.7599 25.16 64.2919 25.16V26.812H63.8859C63.2606 26.812 62.7846 26.9707 62.4579 27.288C62.1406 27.6053 61.9819 28.156 61.9819 28.94V33H60.3859V25.286H61.9819V26.406ZM72.829 28.954C72.829 29.2433 72.8103 29.5047 72.773 29.738H66.879C66.9257 30.354 67.1543 30.8487 67.565 31.222C67.9757 31.5953 68.4797 31.782 69.077 31.782C69.9357 31.782 70.5423 31.4227 70.897 30.704H72.619C72.3857 31.4133 71.961 31.9967 71.345 32.454C70.7383 32.902 69.9823 33.126 69.077 33.126C68.3397 33.126 67.677 32.9627 67.089 32.636C66.5103 32.3 66.053 31.8333 65.717 31.236C65.3903 30.6293 65.227 29.9293 65.227 29.136C65.227 28.3427 65.3857 27.6473 65.703 27.05C66.0297 26.4433 66.4823 25.9767 67.061 25.65C67.649 25.3233 68.321 25.16 69.077 25.16C69.805 25.16 70.4537 25.3187 71.023 25.636C71.5923 25.9533 72.0357 26.4013 72.353 26.98C72.6703 27.5493 72.829 28.2073 72.829 28.954ZM71.163 28.45C71.1537 27.862 70.9437 27.3907 70.533 27.036C70.1223 26.6813 69.6137 26.504 69.007 26.504C68.4563 26.504 67.985 26.6813 67.593 27.036C67.201 27.3813 66.9677 27.8527 66.893 28.45H71.163ZM73.8676 29.108C73.8676 28.3333 74.0263 27.6473 74.3436 27.05C74.6703 26.4527 75.1089 25.9907 75.6596 25.664C76.2196 25.328 76.8403 25.16 77.5216 25.16C78.0256 25.16 78.5203 25.272 79.0056 25.496C79.5003 25.7107 79.8923 26 80.1816 26.364V22.64H81.7916V33H80.1816V31.838C79.9203 32.2113 79.5563 32.5193 79.0896 32.762C78.6323 33.0047 78.1049 33.126 77.5076 33.126C76.8356 33.126 76.2196 32.958 75.6596 32.622C75.1089 32.2767 74.6703 31.8007 74.3436 31.194C74.0263 30.578 73.8676 29.8827 73.8676 29.108ZM80.1816 29.136C80.1816 28.604 80.0696 28.142 79.8456 27.75C79.6309 27.358 79.3463 27.0593 78.9916 26.854C78.6369 26.6487 78.2543 26.546 77.8436 26.546C77.4329 26.546 77.0503 26.6487 76.6956 26.854C76.3409 27.05 76.0516 27.344 75.8276 27.736C75.6129 28.1187 75.5056 28.576 75.5056 29.108C75.5056 29.64 75.6129 30.1067 75.8276 30.508C76.0516 30.9093 76.3409 31.2173 76.6956 31.432C77.0596 31.6373 77.4423 31.74 77.8436 31.74C78.2543 31.74 78.6369 31.6373 78.9916 31.432C79.3463 31.2267 79.6309 30.928 79.8456 30.536C80.0696 30.1347 80.1816 29.668 80.1816 29.136ZM89.1206 26.434C89.3913 26.0607 89.7599 25.7573 90.2266 25.524C90.7026 25.2813 91.2299 25.16 91.8086 25.16C92.4899 25.16 93.1059 25.3233 93.6566 25.65C94.2073 25.9767 94.6413 26.4433 94.9586 27.05C95.2759 27.6473 95.4346 28.3333 95.4346 29.108C95.4346 29.8827 95.2759 30.578 94.9586 31.194C94.6413 31.8007 94.2026 32.2767 93.6426 32.622C93.0919 32.958 92.4806 33.126 91.8086 33.126C91.2113 33.126 90.6793 33.0093 90.2126 32.776C89.7553 32.5427 89.3913 32.244 89.1206 31.88V33H87.5246V22.64H89.1206V26.434ZM93.8106 29.108C93.8106 28.576 93.6986 28.1187 93.4746 27.736C93.2599 27.344 92.9706 27.05 92.6066 26.854C92.2519 26.6487 91.8693 26.546 91.4586 26.546C91.0573 26.546 90.6746 26.6487 90.3106 26.854C89.9559 27.0593 89.6666 27.358 89.4426 27.75C89.2279 28.142 89.1206 28.604 89.1206 29.136C89.1206 29.668 89.2279 30.1347 89.4426 30.536C89.6666 30.928 89.9559 31.2267 90.3106 31.432C90.6746 31.6373 91.0573 31.74 91.4586 31.74C91.8693 31.74 92.2519 31.6373 92.6066 31.432C92.9706 31.2173 93.2599 30.9093 93.4746 30.508C93.6986 30.1067 93.8106 29.64 93.8106 29.108ZM103.957 25.286L99.2249 36.626H97.5729L99.1409 32.874L96.1029 25.286H97.8809L100.051 31.166L102.305 25.286H103.957Z" fill="#969696"/>
<line x1="135.6" y1="59.6" x2="135.6" y2="0.400002" stroke="#969696" stroke-width="0.8" stroke-linecap="round" stroke-linejoin="round"/>
</svg>
