<svg width="162" height="38" viewBox="0 0 162 38" fill="none" xmlns="http://www.w3.org/2000/svg">
<path d="M86.0999 34.3657C86.337 34.1261 86.6865 34 87.0236 34C87.7101 34 87.9972 34.3279 87.9972 34.9962V36.005C87.9972 36.1438 88.0097 36.2951 88.0346 36.4086H87.6602C87.6352 36.3077 87.6352 36.1564 87.6352 36.0555H87.6227C87.4729 36.2951 87.2108 36.4716 86.8613 36.4716C86.387 36.4716 86 36.232 86 35.7781C86 34.9962 86.8863 34.9584 87.4604 34.9584H87.6102V34.8827C87.6102 34.5422 87.398 34.3657 87.036 34.3657C86.7864 34.3657 86.5243 34.454 86.3495 34.6179L86.0999 34.3657ZM87.2233 35.2863C86.7365 35.2863 86.4119 35.425 86.4119 35.7402C86.4119 36.0303 86.6366 36.1438 86.9237 36.1438C87.3731 36.1438 87.5978 35.8159 87.6102 35.4376V35.2863H87.2233Z" fill="#969696"/>
<path d="M88.7085 34.6177C88.7085 34.4034 88.696 34.2142 88.696 34.0629H89.058C89.058 34.189 89.0705 34.3151 89.0705 34.4538H89.083C89.1829 34.2268 89.4824 34.0125 89.8569 34.0125C90.4686 34.0125 90.7432 34.4034 90.7432 34.9708V36.421H90.3562V35.0087C90.3562 34.6177 90.1939 34.3655 89.832 34.3655C89.3327 34.3655 89.108 34.7312 89.108 35.2735V36.421H88.721V34.6177H88.7085Z" fill="#969696"/>
<path d="M93 33H94.0485L95.5464 35.4716H95.5589V33H96.3328V36.5561H95.3217L93.7864 34.0214H93.7739V36.5561H93V33Z" fill="#969696"/>
<path d="M97.6934 33.6936H96.6948V33H99.4784V33.6936H98.4798V36.5561H97.7059V33.6936H97.6934Z" fill="#969696"/>
<path d="M100.515 33.6936H99.5161V33H102.3V33.6936H101.301V36.5561H100.527V33.6936H100.515Z" fill="#969696"/>
<path d="M104.085 33H105.246C106.381 33 107.33 33.4918 107.33 34.7907C107.33 35.9382 106.406 36.5561 105.358 36.5561H104.097V33H104.085ZM104.859 35.8247H105.258C105.982 35.8247 106.519 35.5473 106.519 34.7402C106.519 34.0467 105.97 33.7188 105.308 33.7188H104.846V35.8247H104.859Z" fill="#969696"/>
<path d="M108.978 33H109.614L111.15 36.5561H110.276L109.976 35.7995H108.616L108.316 36.5561H107.467L108.978 33ZM109.277 34.034L108.853 35.1438H109.714L109.277 34.034Z" fill="#969696"/>
<path d="M111.687 33.6936H110.688V33H113.459V33.6936H112.461V36.5561H111.687V33.6936Z" fill="#969696"/>
<path d="M114.495 33H115.131L116.654 36.5561H115.78L115.481 35.7995H114.12L113.833 36.5561H112.984L114.495 33ZM114.794 34.034L114.37 35.1438H115.231L114.794 34.034Z" fill="#969696"/>
<path d="M122.631 34.2358C123.342 34.2358 123.879 34.7403 123.879 35.4717C123.879 36.2031 123.355 36.7075 122.631 36.7075C121.919 36.7075 121.395 36.2031 121.395 35.4717C121.395 34.7403 121.919 34.2358 122.631 34.2358ZM122.631 36.3544C123.13 36.3544 123.455 35.9761 123.455 35.4843C123.455 34.9925 123.13 34.6142 122.631 34.6142C122.131 34.6142 121.807 34.9925 121.807 35.4843C121.819 35.9761 122.131 36.3544 122.631 36.3544Z" fill="#969696"/>
<path d="M124.441 34.8538C124.441 34.6395 124.428 34.4503 124.428 34.299H124.79C124.79 34.4251 124.803 34.5512 124.803 34.6899H124.815C124.915 34.4629 125.202 34.2485 125.589 34.2485C126.089 34.2485 126.251 34.5386 126.326 34.6899C126.488 34.4125 126.713 34.2485 127.062 34.2485C127.724 34.2485 127.949 34.6268 127.949 35.2321V36.6571H127.562V35.2574C127.562 34.9295 127.449 34.6142 127 34.6142C126.675 34.6142 126.401 34.8791 126.401 35.3078V36.6571H126.014V35.333C126.014 34.816 125.876 34.6142 125.564 34.6142C125.065 34.6142 124.84 34.9799 124.84 35.5222V36.6697H124.453V34.8538H124.441Z" fill="#969696"/>
<path d="M128.535 34.2989H128.922V34.6394H128.935C129.147 34.3872 129.434 34.2358 129.771 34.2358C130.495 34.2358 130.994 34.7529 130.994 35.4717C130.994 36.1778 130.482 36.7075 129.833 36.7075C129.409 36.7075 129.084 36.4931 128.935 36.2283H128.922V37.792H128.535V34.2989ZM129.746 36.3544C130.245 36.3544 130.57 35.9761 130.57 35.4843C130.57 34.9925 130.245 34.6142 129.746 34.6142C129.247 34.6142 128.922 34.9925 128.922 35.4843C128.91 35.9761 129.247 36.3544 129.746 36.3544Z" fill="#969696"/>
<path d="M131.494 34.6015C131.731 34.3619 132.08 34.2358 132.417 34.2358C133.104 34.2358 133.391 34.5637 133.391 35.2321V36.2409C133.391 36.3796 133.403 36.5309 133.428 36.6444H133.054C133.029 36.5435 133.029 36.3922 133.029 36.2913H133.017C132.867 36.5309 132.605 36.7075 132.255 36.7075C131.781 36.7075 131.394 36.4679 131.394 36.0139C131.394 35.2321 132.293 35.1942 132.854 35.1942H133.004V35.1186C133.004 34.7781 132.792 34.6015 132.43 34.6015C132.18 34.6015 131.931 34.6898 131.743 34.8537L131.494 34.6015ZM132.617 35.5221C132.13 35.5221 131.806 35.6608 131.806 35.9761C131.806 36.2661 132.03 36.3796 132.317 36.3796C132.767 36.3796 132.992 36.0517 133.004 35.6734V35.5221H132.617Z" fill="#969696"/>
<path d="M134.027 34.8538C134.027 34.6395 134.002 34.4503 134.002 34.299H134.364C134.364 34.4251 134.377 34.5512 134.377 34.6899H134.389C134.489 34.4629 134.776 34.2485 135.163 34.2485C135.775 34.2485 136.05 34.6395 136.05 35.2069V36.6571H135.663V35.2448C135.663 34.8538 135.5 34.6016 135.126 34.6016C134.627 34.6016 134.402 34.9673 134.402 35.5096V36.6571H134.015V34.8538H134.027Z" fill="#969696"/>
<path d="M137.61 37.1868C137.46 37.5904 137.298 37.8552 136.836 37.8552C136.724 37.8552 136.587 37.8426 136.487 37.7921L136.537 37.4517C136.611 37.4769 136.699 37.4895 136.811 37.4895C137.061 37.4895 137.161 37.3382 137.248 37.0986L137.41 36.6572L136.449 34.2991H136.899L137.623 36.1402H137.635L138.322 34.2991H138.746L137.61 37.1868Z" fill="#969696"/>
<path d="M120.646 33.8197C120.434 33.5296 120.11 33.3909 119.773 33.3909C118.999 33.3909 118.437 34.0845 118.437 34.8537C118.437 35.6734 118.986 36.3165 119.773 36.3165C120.197 36.3165 120.534 36.14 120.784 35.8247L121.096 36.0895C120.784 36.5183 120.334 36.7074 119.773 36.7074C118.774 36.7074 118 35.9256 118 34.8537C118 33.8197 118.736 33 119.773 33C120.247 33 120.709 33.1639 121.008 33.5549L120.646 33.8197Z" fill="#969696"/>
<path fill-rule="evenodd" clip-rule="evenodd" d="M141.054 9.28468C140.842 8.9442 140.468 8.75504 139.919 8.74243C139.357 8.76765 138.907 8.95681 138.583 9.32251C138.258 9.6756 138.084 10.0917 138.021 10.5583H141.416C141.379 10.0539 141.267 9.62516 141.054 9.28468Z" fill="#969696"/>
<path fill-rule="evenodd" clip-rule="evenodd" d="M161.801 4.41716C160.839 -4.76317 150.454 3.14352 133.366 3.58488C115.054 4.05146 110.822 21.088 112.258 25.9808C115.578 37.2419 129.246 19.2217 147.146 33.2948C159.816 43.257 162.762 13.5975 161.801 4.41716ZM150.953 5.17378C151.116 5.00985 151.328 4.92158 151.577 4.90897C151.827 4.92158 152.039 4.99724 152.202 5.17378C152.364 5.33772 152.451 5.55209 152.451 5.8043C152.451 6.05651 152.364 6.27088 152.202 6.43482C152.039 6.59875 151.827 6.68702 151.577 6.69963C151.328 6.68702 151.116 6.61136 150.953 6.43482C150.791 6.27088 150.704 6.05651 150.704 5.8043C150.704 5.55209 150.791 5.35033 150.953 5.17378ZM129.671 13.3579C129.296 13.9001 128.847 14.3541 128.31 14.7072C127.761 15.0603 127.137 15.2494 126.45 15.2621C125.776 15.2494 125.202 15.0981 124.74 14.7955C124.278 14.4928 123.941 14.0767 123.704 13.5597C123.479 13.0426 123.367 12.4499 123.355 11.8068C123.367 11.1511 123.517 10.5458 123.804 10.0035C124.091 9.4613 124.503 9.01994 125.015 8.69207C125.527 8.3642 126.113 8.18765 126.762 8.18765C127.636 8.20026 128.31 8.46508 128.797 8.96949C129.271 9.47391 129.521 10.1675 129.558 11.0376V11.1385H124.628C124.628 11.6807 124.703 12.1851 124.877 12.6517C125.052 13.1309 125.327 13.5218 125.714 13.8119C126.101 14.1019 126.6 14.2658 127.224 14.2658C127.611 14.2532 127.998 14.1271 128.373 13.9001C128.747 13.6732 129.059 13.4083 129.296 13.1057L129.359 13.0426L129.708 13.2948L129.671 13.3579ZM136.224 8.96949C136.074 9.07038 135.949 9.33519 135.837 9.61262L133.915 15.1233L132.642 15.136L130.782 10.0792C130.644 9.67567 130.495 9.38564 130.32 9.18387C130.145 8.98211 129.895 8.79295 129.558 8.76773L129.471 8.75512V8.27593C129.471 8.27593 132.454 8.27593 132.542 8.27593H132.642V8.75512L132.554 8.76773C132.267 8.78034 132.092 8.83078 132.005 8.90644C131.918 8.96949 131.868 9.07038 131.88 9.19648C131.88 9.24692 131.893 9.34781 131.943 9.47391C131.98 9.5874 133.241 13.0931 133.603 14.0767C133.952 13.1057 135.163 9.7009 135.2 9.56218C135.25 9.41086 135.263 9.27214 135.263 9.15865C135.263 9.05777 135.213 8.96949 135.101 8.89383C135.001 8.83078 134.813 8.78034 134.539 8.76773H134.451V8.28854H134.551C134.651 8.28854 136.761 8.28854 136.761 8.28854V8.76773L136.673 8.78034C136.524 8.79295 136.374 8.856 136.224 8.96949ZM143.039 13.3579C142.665 13.9001 142.216 14.3541 141.679 14.7072C141.13 15.0603 140.506 15.2494 139.819 15.2621C139.145 15.2494 138.571 15.0981 138.109 14.7955C137.647 14.4928 137.31 14.0767 137.073 13.5597C136.848 13.0426 136.736 12.4499 136.736 11.8068C136.736 11.1511 136.886 10.5458 137.185 10.0035C137.485 9.4613 137.884 9.01994 138.396 8.69207C138.908 8.3642 139.494 8.18765 140.144 8.18765C141.017 8.20026 141.691 8.46508 142.178 8.96949C142.652 9.47391 142.902 10.1675 142.94 11.0376V11.1385H138.009C138.009 11.6807 138.084 12.1851 138.259 12.6517C138.433 13.1309 138.708 13.5218 139.095 13.8119C139.482 14.1019 139.981 14.2658 140.605 14.2658C140.992 14.2532 141.379 14.1271 141.754 13.9001C142.128 13.6732 142.44 13.4083 142.69 13.1057L142.74 13.0426L143.102 13.2948L143.039 13.3579ZM149.081 9.78917H148.132L148.12 9.71351C148.082 9.54957 148.032 9.38564 147.945 9.2217C147.858 9.07038 147.72 8.99472 147.533 8.98211C147.184 8.99472 146.859 9.12082 146.547 9.36042C146.235 9.5874 145.973 9.827 145.723 10.0666L145.711 13.9506C145.711 14.1523 145.736 14.2911 145.786 14.3793C145.836 14.4676 145.935 14.5433 146.123 14.5811C146.297 14.6189 146.584 14.6441 146.959 14.6315H147.059V15.1107H143.189V14.6315H143.289C143.788 14.6315 144.075 14.5811 144.2 14.4928C144.325 14.4046 144.375 14.228 144.363 13.938V9.65045C144.375 9.36042 144.325 9.18387 144.2 9.0956C144.088 9.00733 143.788 8.95689 143.289 8.95689H143.189V8.47769L143.277 8.46508C143.676 8.42725 144.051 8.38942 144.413 8.35159C144.775 8.31376 145.112 8.25071 145.436 8.16243L145.548 8.13721L145.673 9.48652C145.998 9.14604 146.36 8.856 146.759 8.59118C147.196 8.31376 147.67 8.16243 148.195 8.14982C148.307 8.14982 148.457 8.17504 148.619 8.22548C148.781 8.26332 148.906 8.31376 149.019 8.3642L149.081 8.38942V9.78917ZM153.387 15.136H149.668V14.6568H149.768C150.292 14.6441 150.604 14.5559 150.741 14.4298C150.878 14.2911 150.941 13.9884 150.928 13.4966V9.83961C150.941 9.43608 150.866 9.19648 150.741 9.0956C150.604 8.99472 150.304 8.93166 149.805 8.94427H149.705V8.45247L149.792 8.43986C150.604 8.37681 151.403 8.28854 152.202 8.16243L152.314 8.14982C152.314 8.14982 152.289 12.7904 152.289 13.484C152.276 13.9758 152.339 14.2784 152.451 14.4172C152.564 14.5433 152.838 14.6315 153.3 14.6441H153.4V15.136H153.387ZM158.867 14.3163C158.63 14.6441 158.318 14.8711 157.944 15.0225C157.557 15.1738 157.145 15.2494 156.695 15.2494C156.221 15.2494 155.747 15.1864 155.26 15.0603C154.785 14.9468 154.386 14.7955 154.061 14.6063L154.012 13.1561H154.773L154.785 13.2444C154.873 13.7866 155.085 14.1523 155.372 14.3667C155.684 14.5937 156.109 14.6946 156.67 14.6946C156.883 14.6946 157.107 14.6568 157.319 14.5937C157.544 14.518 157.719 14.4172 157.881 14.2658C158.031 14.1145 158.106 13.9254 158.106 13.6858C158.093 13.3957 157.968 13.1561 157.719 12.967C157.457 12.7652 157.132 12.6013 156.745 12.4499C156.358 12.2986 155.959 12.1221 155.572 11.9329C155.172 11.7438 154.848 11.5042 154.573 11.2141C154.299 10.9115 154.161 10.5332 154.149 10.0666C154.161 9.63784 154.299 9.27214 154.548 8.99472C154.798 8.71729 155.122 8.51552 155.497 8.37681C155.871 8.25071 156.246 8.17504 156.62 8.18765C156.995 8.18765 157.357 8.2381 157.719 8.33898C158.068 8.42725 158.418 8.54074 158.755 8.66685L158.817 8.69207V9.96571H158.143L158.131 9.89005C158.056 9.51174 157.869 9.20909 157.607 8.99472C157.319 8.76773 156.982 8.65424 156.558 8.65424C156.233 8.65424 155.934 8.74251 155.672 8.90644C155.422 9.07038 155.285 9.32258 155.26 9.66306C155.272 9.90266 155.397 10.1044 155.647 10.281C155.909 10.4701 156.233 10.6467 156.62 10.8106C157.02 10.9745 157.407 11.1511 157.794 11.3528C158.193 11.5546 158.518 11.7816 158.792 12.059C159.067 12.3365 159.204 12.6895 159.217 13.0931C159.229 13.5849 159.117 13.9884 158.867 14.3163Z" fill="#969696"/>
<path fill-rule="evenodd" clip-rule="evenodd" d="M127.686 9.28468C127.474 8.9442 127.099 8.75504 126.55 8.74243C125.988 8.76765 125.539 8.95681 125.214 9.32251C124.902 9.6756 124.715 10.0917 124.653 10.5583H128.048C128.023 10.0539 127.898 9.62516 127.686 9.28468Z" fill="#969696"/>
<path d="M8.07484 11.12C8.07484 11.4733 7.99151 11.8067 7.82484 12.12C7.65818 12.4333 7.39151 12.69 7.02484 12.89C6.65818 13.0833 6.18818 13.18 5.61484 13.18H4.35484V16H3.21484V9.05H5.61484C6.14818 9.05 6.59818 9.14333 6.96484 9.33C7.33818 9.51 7.61484 9.75667 7.79484 10.07C7.98151 10.3833 8.07484 10.7333 8.07484 11.12ZM5.61484 12.25C6.04818 12.25 6.37151 12.1533 6.58484 11.96C6.79818 11.76 6.90484 11.48 6.90484 11.12C6.90484 10.36 6.47484 9.98 5.61484 9.98H4.35484V12.25H5.61484ZM11.5521 16.09C11.0321 16.09 10.5621 15.9733 10.1421 15.74C9.72211 15.5 9.39211 15.1667 9.15211 14.74C8.91211 14.3067 8.79211 13.8067 8.79211 13.24C8.79211 12.68 8.91544 12.1833 9.16211 11.75C9.40878 11.3167 9.74544 10.9833 10.1721 10.75C10.5988 10.5167 11.0754 10.4 11.6021 10.4C12.1288 10.4 12.6054 10.5167 13.0321 10.75C13.4588 10.9833 13.7954 11.3167 14.0421 11.75C14.2888 12.1833 14.4121 12.68 14.4121 13.24C14.4121 13.8 14.2854 14.2967 14.0321 14.73C13.7788 15.1633 13.4321 15.5 12.9921 15.74C12.5588 15.9733 12.0788 16.09 11.5521 16.09ZM11.5521 15.1C11.8454 15.1 12.1188 15.03 12.3721 14.89C12.6321 14.75 12.8421 14.54 13.0021 14.26C13.1621 13.98 13.2421 13.64 13.2421 13.24C13.2421 12.84 13.1654 12.5033 13.0121 12.23C12.8588 11.95 12.6554 11.74 12.4021 11.6C12.1488 11.46 11.8754 11.39 11.5821 11.39C11.2888 11.39 11.0154 11.46 10.7621 11.6C10.5154 11.74 10.3188 11.95 10.1721 12.23C10.0254 12.5033 9.95211 12.84 9.95211 13.24C9.95211 13.8333 10.1021 14.2933 10.4021 14.62C10.7088 14.94 11.0921 15.1 11.5521 15.1ZM22.9391 10.49L21.2291 16H20.0291L18.9191 11.93L17.8091 16H16.6091L14.8891 10.49H16.0491L17.1991 14.92L18.3691 10.49H19.5591L20.6791 14.9L21.8191 10.49H22.9391ZM28.841 13.11C28.841 13.3167 28.8277 13.5033 28.801 13.67H24.591C24.6243 14.11 24.7877 14.4633 25.081 14.73C25.3743 14.9967 25.7343 15.13 26.161 15.13C26.7743 15.13 27.2077 14.8733 27.461 14.36H28.691C28.5243 14.8667 28.221 15.2833 27.781 15.61C27.3477 15.93 26.8077 16.09 26.161 16.09C25.6343 16.09 25.161 15.9733 24.741 15.74C24.3277 15.5 24.001 15.1667 23.761 14.74C23.5277 14.3067 23.411 13.8067 23.411 13.24C23.411 12.6733 23.5243 12.1767 23.751 11.75C23.9843 11.3167 24.3077 10.9833 24.721 10.75C25.141 10.5167 25.621 10.4 26.161 10.4C26.681 10.4 27.1443 10.5133 27.551 10.74C27.9577 10.9667 28.2743 11.2867 28.501 11.7C28.7277 12.1067 28.841 12.5767 28.841 13.11ZM27.651 12.75C27.6443 12.33 27.4943 11.9933 27.201 11.74C26.9077 11.4867 26.5443 11.36 26.111 11.36C25.7177 11.36 25.381 11.4867 25.101 11.74C24.821 11.9867 24.6543 12.3233 24.601 12.75H27.651ZM31.1029 11.29C31.2696 11.01 31.4896 10.7933 31.7629 10.64C32.0429 10.48 32.3729 10.4 32.7529 10.4V11.58H32.4629C32.0162 11.58 31.6762 11.6933 31.4429 11.92C31.2162 12.1467 31.1029 12.54 31.1029 13.1V16H29.9629V10.49H31.1029V11.29ZM38.8508 13.11C38.8508 13.3167 38.8374 13.5033 38.8108 13.67H34.6008C34.6341 14.11 34.7974 14.4633 35.0908 14.73C35.3841 14.9967 35.7441 15.13 36.1708 15.13C36.7841 15.13 37.2174 14.8733 37.4708 14.36H38.7008C38.5341 14.8667 38.2308 15.2833 37.7908 15.61C37.3574 15.93 36.8174 16.09 36.1708 16.09C35.6441 16.09 35.1708 15.9733 34.7508 15.74C34.3374 15.5 34.0108 15.1667 33.7708 14.74C33.5374 14.3067 33.4208 13.8067 33.4208 13.24C33.4208 12.6733 33.5341 12.1767 33.7608 11.75C33.9941 11.3167 34.3174 10.9833 34.7308 10.75C35.1508 10.5167 35.6308 10.4 36.1708 10.4C36.6908 10.4 37.1541 10.5133 37.5608 10.74C37.9674 10.9667 38.2841 11.2867 38.5108 11.7C38.7374 12.1067 38.8508 12.5767 38.8508 13.11ZM37.6608 12.75C37.6541 12.33 37.5041 11.9933 37.2108 11.74C36.9174 11.4867 36.5541 11.36 36.1208 11.36C35.7274 11.36 35.3908 11.4867 35.1108 11.74C34.8308 11.9867 34.6641 12.3233 34.6108 12.75H37.6608ZM39.5927 13.22C39.5927 12.6667 39.706 12.1767 39.9327 11.75C40.166 11.3233 40.4793 10.9933 40.8727 10.76C41.2727 10.52 41.716 10.4 42.2027 10.4C42.5627 10.4 42.916 10.48 43.2627 10.64C43.616 10.7933 43.896 11 44.1027 11.26V8.6H45.2527V16H44.1027V15.17C43.916 15.4367 43.656 15.6567 43.3227 15.83C42.996 16.0033 42.6193 16.09 42.1927 16.09C41.7127 16.09 41.2727 15.97 40.8727 15.73C40.4793 15.4833 40.166 15.1433 39.9327 14.71C39.706 14.27 39.5927 13.7733 39.5927 13.22ZM44.1027 13.24C44.1027 12.86 44.0227 12.53 43.8627 12.25C43.7093 11.97 43.506 11.7567 43.2527 11.61C42.9993 11.4633 42.726 11.39 42.4327 11.39C42.1393 11.39 41.866 11.4633 41.6127 11.61C41.3593 11.75 41.1527 11.96 40.9927 12.24C40.8393 12.5133 40.7627 12.84 40.7627 13.22C40.7627 13.6 40.8393 13.9333 40.9927 14.22C41.1527 14.5067 41.3593 14.7267 41.6127 14.88C41.8727 15.0267 42.146 15.1 42.4327 15.1C42.726 15.1 42.9993 15.0267 43.2527 14.88C43.506 14.7333 43.7093 14.52 43.8627 14.24C44.0227 13.9533 44.1027 13.62 44.1027 13.24ZM32.6947 23.31C32.888 23.0433 33.1514 22.8267 33.4847 22.66C33.8247 22.4867 34.2014 22.4 34.6147 22.4C35.1014 22.4 35.5414 22.5167 35.9347 22.75C36.328 22.9833 36.638 23.3167 36.8647 23.75C37.0914 24.1767 37.2047 24.6667 37.2047 25.22C37.2047 25.7733 37.0914 26.27 36.8647 26.71C36.638 27.1433 36.3247 27.4833 35.9247 27.73C35.5314 27.97 35.0947 28.09 34.6147 28.09C34.188 28.09 33.808 28.0067 33.4747 27.84C33.148 27.6733 32.888 27.46 32.6947 27.2V28H31.5547V20.6H32.6947V23.31ZM36.0447 25.22C36.0447 24.84 35.9647 24.5133 35.8047 24.24C35.6514 23.96 35.4447 23.75 35.1847 23.61C34.9314 23.4633 34.658 23.39 34.3647 23.39C34.078 23.39 33.8047 23.4633 33.5447 23.61C33.2914 23.7567 33.0847 23.97 32.9247 24.25C32.7714 24.53 32.6947 24.86 32.6947 25.24C32.6947 25.62 32.7714 25.9533 32.9247 26.24C33.0847 26.52 33.2914 26.7333 33.5447 26.88C33.8047 27.0267 34.078 27.1 34.3647 27.1C34.658 27.1 34.9314 27.0267 35.1847 26.88C35.4447 26.7267 35.6514 26.5067 35.8047 26.22C35.9647 25.9333 36.0447 25.6 36.0447 25.22ZM43.292 22.49L39.912 30.59H38.732L39.852 27.91L37.682 22.49H38.952L40.502 26.69L42.112 22.49H43.292Z" fill="#969696"/>
<line x1="64.6" y1="37.6" x2="64.6" y2="0.400002" stroke="#DEE2E6" stroke-width="0.8" stroke-linecap="round" stroke-linejoin="round"/>
</svg>
