<svg width="38" height="40" viewBox="0 0 38 40" fill="none" xmlns="http://www.w3.org/2000/svg">
<path fill-rule="evenodd" clip-rule="evenodd" d="M28.531 1.90503L27.247 4.60603L26.605 5.95503L25.321 8.65203L30.338 6.86703L28.531 1.90503ZM19.522 27.257C16.038 27.257 13.217 24.465 13.217 21.021C13.217 17.577 16.038 14.785 19.522 14.785C23.004 14.785 25.826 17.577 25.826 21.021C25.826 24.465 23.004 27.257 19.522 27.257ZM31.338 19.737C31.0901 17.5108 30.2054 15.4032 28.79 13.667L30.007 12.465L28.172 10.649L26.955 11.853C25.1901 10.4489 23.0624 9.57565 20.82 9.33503V7.63603H18.224V9.33503C15.9808 9.57579 13.8521 10.449 12.086 11.853L10.87 10.65L9.03501 12.466L10.252 13.669C8.83767 15.4051 7.95433 17.5124 7.70801 19.738H5.98901V22.306H7.70701C7.95352 24.5313 8.83685 26.6383 10.251 28.374L9.03401 29.578L10.869 31.393L12.086 30.189C13.8517 31.5936 15.9806 32.4666 18.224 32.706V34.406H20.82V32.706C23.0625 32.4667 25.1905 31.5936 26.955 30.189L28.172 31.393L30.007 29.578L28.79 28.376C30.2057 26.64 31.0904 24.5324 31.338 22.306H33.054V19.738H31.338V19.737Z" fill="#787878"/>
<path fill-rule="evenodd" clip-rule="evenodd" d="M34.1961 27.8489C30.3861 35.8499 20.7071 39.2989 12.6161 35.5319C4.52608 31.7689 1.04108 22.1929 4.84708 14.1919C8.65508 6.18992 18.3371 2.74192 26.4271 6.50792L27.5311 4.18592C18.1461 -0.182081 6.91508 3.81592 2.49908 13.0979C-1.91492 22.3819 2.12808 33.4879 11.5131 37.8559C20.8981 42.2239 32.1281 38.2239 36.5431 28.9419L34.1961 27.8489V27.8489Z" fill="#787878"/>
</svg>
