<svg xmlns="http://www.w3.org/2000/svg" width="20" height="21" viewBox="0 0 20 21">
    <g fill-rule="evenodd">
        <path d="M14.445 1l-.667 1.418-.333.708-.667 1.416 2.605-.937zM9.767 14.31a3.274 3.274 0 1 1 0-6.547 3.274 3.274 0 0 1 0 6.547zm6.135-3.948a6.15 6.15 0 0 0-1.323-3.187l.632-.631-.953-.953-.632.632A6.138 6.138 0 0 0 10.441 4.9v-.892H9.093V4.9a6.145 6.145 0 0 0-3.187 1.322l-.632-.632-.953.953.632.632a6.144 6.144 0 0 0-1.32 3.186H2.74v1.348h.892a6.144 6.144 0 0 0 1.321 3.186l-.632.632.953.953.632-.632a6.136 6.136 0 0 0 3.187 1.32v.894h1.348v-.893a6.129 6.129 0 0 0 3.185-1.321l.632.632.953-.953-.632-.631a6.146 6.146 0 0 0 1.323-3.187h.891v-1.348h-.89z"/>
        <path d="M17.387 14.62c-1.979 4.202-7.005 6.011-11.206 4.034-4.2-1.976-6.01-7.002-4.034-11.204 1.978-4.2 7.005-6.01 11.205-4.034l.573-1.219C9.052-.095 3.221 2.003.928 6.877-1.364 11.75.735 17.58 5.608 19.874c4.874 2.293 10.705.192 12.998-4.68l-1.22-.575z"/>
    </g>
</svg>
