<svg xmlns="http://www.w3.org/2000/svg" width="22" height="22" viewBox="0 0 22 22">
    <path fill="#87786E" fill-rule="evenodd" d="M9.292 12.007l-1.433-1.432-1.184 1.184 2.617 2.618 4.801-4.801-1.185-1.185-3.616 3.616zm7.09-.623a6.004 6.004 0 0 1-5.998 5.998 6.004 6.004 0 0 1-5.998-5.998 6.005 6.005 0 0 1 5.998-5.998 6.005 6.005 0 0 1 5.998 5.998zm3.069-1.448a9.139 9.139 0 0 0-1.633-3.938l.932-.933-2.048-2.047-.932.933a9.117 9.117 0 0 0-3.938-1.633V1H8.937v1.318a9.123 9.123 0 0 0-3.94 1.633l-.932-.933-2.048 2.047.933.934a9.135 9.135 0 0 0-1.632 3.937H0v2.896h1.318A9.14 9.14 0 0 0 2.95 16.77l-.933.933 2.048 2.047.933-.933a9.128 9.128 0 0 0 3.939 1.633v1.318h2.895V20.45a9.125 9.125 0 0 0 3.938-1.632l.932.932 2.047-2.047-.931-.932a9.162 9.162 0 0 0 1.633-3.94h1.318V9.937H19.45z"/>
</svg>
